<svg width="118" height="24" viewBox="0 0 118 24" fill="none" xmlns="http://www.w3.org/2000/svg">
<path fill-rule="evenodd" clip-rule="evenodd" d="M68.096 12.116V12.0606C68.089 10.7134 68.3491 9.37839 68.8611 8.13357C69.3732 6.88875 70.1269 5.75914 71.0781 4.81081C72.0293 3.86248 73.159 3.11448 74.4011 2.61056C75.6431 2.10664 76.9726 1.85693 78.3117 1.87602C84.0743 1.87602 88.4756 6.34235 88.4756 12.0084V12.0671C88.4831 13.4145 88.2233 14.7499 87.7114 15.9951C87.1996 17.2403 86.446 18.3703 85.4947 19.3189C84.5434 20.2676 83.4136 21.0159 82.1713 21.52C80.9291 22.0242 79.5993 22.274 78.2599 22.2549C72.4973 22.2549 68.096 17.7885 68.096 12.116ZM82.1815 12.116V12.0606C82.1815 9.74263 80.6615 7.64965 78.2599 7.64965C75.8583 7.64965 74.3933 9.71329 74.3933 12.0019V12.0606C74.3933 14.3752 75.9134 16.4715 78.3117 16.4715C80.7101 16.4715 82.1815 14.398 82.1815 12.116ZM50.6754 2.29656H35.0439V21.8376H41.2862V15.4445H49.998V10.362H41.2764V7.87784H50.6754V2.29656ZM58.9304 2.29656H52.6785V21.8376H67.6812V16.253H58.9304V2.29656ZM93.9334 2.29654H87.3995L93.5056 21.9745H98.9473L102.23 12.2594L105.51 21.9745H110.952L117.061 2.29654H110.631L107.99 11.6758L104.976 2.24112H99.589L96.5748 11.6758L93.9334 2.29654Z" fill="white"/>
<path fill-rule="evenodd" clip-rule="evenodd" d="M24 0H0V24H24V19.5H15V17.25H24V15H18.75V12.75H24V6H15V3.75H24V0ZM9.75 8.25H19.5V10.5H9.75V8.25ZM7.5 15V12.75H17.25V15H7.5ZM8.25 9.375C8.25 9.99632 7.74632 10.5 7.125 10.5C6.50368 10.5 6 9.99632 6 9.375C6 8.75368 6.50368 8.25 7.125 8.25C7.74632 8.25 8.25 8.75368 8.25 9.375ZM12.375 6C12.9963 6 13.5 5.49632 13.5 4.875C13.5 4.25368 12.9963 3.75 12.375 3.75C11.7537 3.75 11.25 4.25368 11.25 4.875C11.25 5.49632 11.7537 6 12.375 6ZM13.5 18.375C13.5 18.9963 12.9963 19.5 12.375 19.5C11.7537 19.5 11.25 18.9963 11.25 18.375C11.25 17.7537 11.7537 17.25 12.375 17.25C12.9963 17.25 13.5 17.7537 13.5 18.375Z" fill="url(#paint0_linear_1768_15303)"/>
<defs>
<linearGradient id="paint0_linear_1768_15303" x1="0" y1="0" x2="24" y2="24" gradientUnits="userSpaceOnUse">
<stop stop-color="#2968B2"/>
<stop offset="1" stop-color="#27AAE1"/>
</linearGradient>
</defs>
</svg>
